<svg width="21" height="19" viewBox="0 0 21 19" fill="none" xmlns="http://www.w3.org/2000/svg">
<path d="M19.3046 17.7397C18.8605 17.7397 18.4984 17.3869 18.4984 16.9542V16.4749H20.1094V16.9542C20.1108 17.3869 19.7487 17.7397 19.3046 17.7397ZM3.28221 16.9542C3.28221 17.3869 2.92012 17.7397 2.47604 17.7397C2.03196 17.7397 1.66986 17.3869 1.66986 16.9542V16.4749H3.28085V16.9542H3.28221ZM5.20064 8.86955H16.5827C18.5285 8.86955 20.1122 10.4127 20.1122 12.3087V13.4378H16.1933C15.9774 13.4378 15.8025 13.6082 15.8025 13.8186C15.8025 14.029 15.9774 14.1994 16.1933 14.1994H20.1122V15.7133H1.67123V14.1994H12.2854C12.5013 14.1994 12.6762 14.029 12.6762 13.8186C12.6762 13.6082 12.5013 13.4378 12.2854 13.4378H1.67123V12.3087C1.67123 10.4127 3.25352 8.86955 5.20064 8.86955ZM11.2811 7.10271C11.2811 6.3997 11.8673 5.8285 12.5888 5.8285H15.9843C16.7057 5.8285 17.2919 6.3997 17.2919 7.10271V8.16654C17.061 8.12926 16.8232 8.10929 16.5814 8.10929H11.2811V7.10271ZM5.20064 8.10796C4.95879 8.10796 4.72103 8.12793 4.49011 8.16521V7.10138C4.49011 6.39837 5.0763 5.82717 5.79776 5.82717H9.19326C9.91472 5.82717 10.5009 6.39837 10.5009 7.10138V8.10796H5.20064ZM4.85904 1.26159H16.8424C17.9409 1.26159 18.8346 2.13237 18.8346 3.20286V8.72975C18.5955 8.58595 18.3399 8.46479 18.0735 8.36893V7.10271C18.0735 5.98029 17.1361 5.06691 15.9843 5.06691H12.5888C11.8892 5.06691 11.2702 5.40377 10.8903 5.91904C10.5105 5.40377 9.89149 5.06691 9.19189 5.06691H5.79639C4.64451 5.06691 3.70716 5.98029 3.70716 7.10271V8.36893C3.41066 8.47544 3.12918 8.61391 2.86683 8.77901V3.20286C2.86683 2.13237 3.76045 1.26159 4.85904 1.26159ZM19.6162 9.32891V3.20286C19.6162 1.71296 18.3714 0.5 16.8424 0.5H4.85904C3.33004 0.5 2.08661 1.71296 2.08661 3.20286V9.40746C1.34466 10.1624 0.889648 11.185 0.889648 12.3087V16.9542C0.889648 17.8063 1.60154 18.5 2.47604 18.5C3.35053 18.5 4.06243 17.8063 4.06243 16.9542V16.4749H17.7169V16.9542C17.7169 17.8063 18.4288 18.5 19.3032 18.5C20.1777 18.5 20.8896 17.8063 20.8896 16.9542V12.3087C20.8924 11.145 20.4032 10.0905 19.6162 9.32891Z" fill="black"/>
</svg>
