<svg width="243" height="32" viewBox="0 0 243 32" fill="none" xmlns="http://www.w3.org/2000/svg">
<path fill-rule="evenodd" clip-rule="evenodd" d="M153.185 1.4876C150.583 1.28935 141.33 0.911224 139.685 1.98688L116.564 20.2252C117.108 18.2942 120.166 11.7301 120.044 10.4819C119.901 9.00614 116.457 3.65725 115.824 1.41417L103.222 1.4105C102.111 1.93548 102.67 1.4362 101.986 2.94138C99.8849 7.57072 91.9227 27.7107 90.7674 29.4545L83.9642 1.38848C80.8183 1.39215 77.6687 1.39215 74.5229 1.39582C66.6968 1.40316 69.9604 2.03093 62.4912 8.31596C61.5604 9.10159 60.7803 9.68898 59.923 10.5297C59.1136 11.3226 58.6352 12.0495 57.8147 12.8168C56.067 14.4505 54.3708 15.5114 52.8071 17.3691C51.2949 19.1643 49.7274 20.2326 47.9981 21.7561C47.0341 22.6078 46.6073 23.3017 45.6911 24.2121L38.5752 30.8532C44.3739 31.0588 45.566 31.4994 47.8068 29.2783C49.6355 27.4684 51.4384 25.8678 53.3296 24.1387C55.2134 22.4169 60.3646 23.1768 63.4847 23.1768C66.9102 23.1768 70.7037 23.0263 74.0703 23.2392L75.6598 30.8899H96.6434C98.1519 27.9934 99.6752 23.7495 101.099 20.4014C102.277 17.6334 104.079 12.4424 105.397 10.0524C106.935 16.0327 111.1 22.2554 112.671 27.7658C114.746 27.6924 115.084 26.9398 116.24 25.9669C120.269 22.5784 130.516 15.0893 133.378 12.2368C134.265 11.3557 134.927 10.6251 135.928 10.0231L127.219 30.8899H151.426C156.036 30.8936 154.999 31.3929 157.563 29.0177C164.628 22.4793 162.615 23.1511 167.983 23.1732C173.403 23.1915 178.83 23.1732 184.187 23.1878L185.806 30.8643H193.088L186.115 1.42152C168.804 1.41417 173.344 0.055843 167.31 5.69842L141.79 29.2343L153.185 1.4876ZM58.6316 19.1129C59.522 17.5122 63.1646 14.5606 64.7504 13.1362C67.0427 11.0767 69.644 7.95619 70.9906 7.37247L73.1063 19.1165L58.6316 19.1129ZM180.684 6.55013L183.341 19.1275L167.829 18.999L180.684 6.55013Z" fill="#7C7C84"/>
<path d="M153.185 1.4876C150.583 1.28935 141.33 0.911224 139.685 1.98688L116.564 20.2252C117.108 18.2942 120.166 11.7301 120.044 10.4819C119.901 9.00614 116.457 3.65725 115.824 1.41417L103.222 1.4105C102.111 1.93548 102.67 1.4362 101.986 2.94138C99.8849 7.57072 91.9227 27.7107 90.7674 29.4545L83.9642 1.38848C80.8183 1.39215 77.6687 1.39215 74.5229 1.39582C66.6968 1.40316 69.9604 2.03093 62.4912 8.31596C61.5604 9.10159 60.7803 9.68898 59.923 10.5297C59.1136 11.3226 58.6352 12.0495 57.8147 12.8168C56.067 14.4505 54.3708 15.5114 52.8071 17.3691C51.2949 19.1643 49.7274 20.2326 47.9981 21.7561C47.0341 22.6078 46.6073 23.3017 45.6911 24.2121L38.5752 30.8532C44.3739 31.0588 45.566 31.4994 47.8068 29.2783C49.6355 27.4684 51.4384 25.8678 53.3296 24.1387C55.2134 22.4169 60.3646 23.1768 63.4847 23.1768C66.9102 23.1768 70.7037 23.0263 74.0703 23.2392L75.6598 30.8899H96.6434C98.1519 27.9934 99.6752 23.7495 101.099 20.4014C102.277 17.6334 104.079 12.4424 105.397 10.0524C106.935 16.0327 111.1 22.2554 112.671 27.7658C114.746 27.6924 115.084 26.9398 116.24 25.9669C120.269 22.5784 130.516 15.0893 133.378 12.2368C134.265 11.3557 134.927 10.6251 135.928 10.0231L127.219 30.8899H151.426C156.036 30.8936 154.999 31.3929 157.563 29.0177C164.628 22.4793 162.615 23.1511 167.983 23.1732C173.403 23.1915 178.83 23.1732 184.187 23.1878L185.806 30.8643H193.088L186.115 1.42152C168.804 1.41417 173.344 0.055843 167.31 5.69842L141.79 29.2343L153.185 1.4876ZM58.6316 19.1129C59.522 17.5122 63.1646 14.5606 64.7504 13.1362C67.0427 11.0767 69.644 7.95619 70.9906 7.37247L73.1063 19.1165L58.6316 19.1129ZM180.684 6.55013L183.341 19.1275L167.829 18.999L180.684 6.55013Z" stroke="#7C7C84" stroke-width="0.5" stroke-miterlimit="2.6131"/>
<path fill-rule="evenodd" clip-rule="evenodd" d="M32.7362 16.073C30.8561 20.8418 29.6603 23.3382 24.9543 24.8066C20.4618 26.209 14.2914 25.8089 9.35002 25.7905L14.3871 13.8776L8.0328 13.8519L0.946289 30.8934C15.2003 30.8934 31.9856 32.9603 41.2504 24.5827C47.7408 18.7125 53.5285 6.49121 43.2519 2.68422C37.766 0.654063 19.1519 1.39197 13.2097 1.38095L11.3774 5.86344C19.7443 7.36862 38.3731 1.77744 32.7362 16.073Z" fill="#7C7C84"/>
<path d="M32.7362 16.073C30.8561 20.8418 29.6603 23.3382 24.9543 24.8066C20.4618 26.209 14.2914 25.8089 9.35002 25.7905L14.3871 13.8776L8.0328 13.8519L0.946289 30.8934C15.2003 30.8934 31.9856 32.9603 41.2504 24.5827C47.7408 18.7125 53.5285 6.49121 43.2519 2.68422C37.766 0.654063 19.1519 1.39197 13.2097 1.38095L11.3774 5.86344C19.7443 7.36862 38.3731 1.77744 32.7362 16.073Z" stroke="#7C7C84" stroke-width="0.5" stroke-miterlimit="2.6131"/>
<path fill-rule="evenodd" clip-rule="evenodd" d="M237.892 10.4966C239.084 9.69993 241.516 3.11019 241.991 1.33335C234.017 1.326 221.743 0.632154 214.34 1.93909C194.655 5.41568 186.976 27.3105 202.198 30.2584C207.909 31.3635 223.369 31.1909 229.65 30.8201L231.475 26.356C227.211 25.5153 220.264 26.5028 215.139 25.7392C202.732 23.8927 211.768 10.2616 218.538 7.25126C222.523 5.48176 229.128 5.5405 233.863 5.9223L232.13 10.4525L237.892 10.4966Z" fill="#7C7C84"/>
<path d="M237.892 10.4966C239.084 9.69993 241.516 3.11019 241.991 1.33335C234.017 1.326 221.743 0.632154 214.34 1.93909C194.655 5.41568 186.976 27.3105 202.198 30.2584C207.909 31.3635 223.369 31.1909 229.65 30.8201L231.475 26.356C227.211 25.5153 220.264 26.5028 215.139 25.7392C202.732 23.8927 211.768 10.2616 218.538 7.25126C222.523 5.48176 229.128 5.5405 233.863 5.9223L232.13 10.4525L237.892 10.4966Z" stroke="#7C7C84" stroke-width="0.5" stroke-miterlimit="2.6131"/>
</svg>
