<svg width="151" height="32" viewBox="0 0 151 32" fill="none" xmlns="http://www.w3.org/2000/svg">
<path fill-rule="evenodd" clip-rule="evenodd" d="M27.4682 31.012C27.5195 27.9007 28.9214 13.1129 29.8925 11.2194C31.038 13.9842 33.5581 18.4332 35.0558 21.1877C36.8441 24.4773 38.5025 27.7978 40.243 31.0223L42.151 30.9914C43.8983 28.2369 45.7447 24.4979 47.3382 21.4587L52.3749 12.3068C52.4022 12.173 52.4912 12.1558 52.5527 12.0838C53.2366 18.5567 54.6077 24.3264 54.3923 31.012L60.5027 30.8816C59.3162 28.9058 57.4356 12.7252 56.8338 8.26248C56.6525 6.91782 56.4679 5.66577 56.3038 4.34855C56.0165 2.01597 56.1738 1.37451 55.2506 1.34707C54.2658 1.3162 53.6435 3.20627 53.2092 4.01924C52.6929 4.98315 52.1834 5.88188 51.6534 6.90066L45.4165 18.8311C44.5411 20.4399 43.3888 23.311 42.3254 24.5048L32.6246 6.13572C31.8211 4.60925 30.1832 -0.148523 28.5658 1.65922C27.6016 2.73976 25.9021 26.7104 24.0078 30.9639L27.4682 31.012Z" fill="#7C7C84"/>
<path d="M27.4682 31.012C27.5195 27.9007 28.9214 13.1129 29.8925 11.2194C31.038 13.9842 33.5581 18.4332 35.0558 21.1877C36.8441 24.4773 38.5025 27.7978 40.243 31.0223L42.151 30.9914C43.8983 28.2369 45.7447 24.4979 47.3382 21.4587L52.3749 12.3068C52.4022 12.173 52.4912 12.1558 52.5527 12.0838C53.2366 18.5567 54.6077 24.3264 54.3923 31.012L60.5027 30.8816C59.3162 28.9058 57.4356 12.7252 56.8338 8.26248C56.6525 6.91782 56.4679 5.66577 56.3038 4.34855C56.0165 2.01597 56.1738 1.37451 55.2506 1.34707C54.2658 1.3162 53.6435 3.20627 53.2092 4.01924C52.6929 4.98315 52.1834 5.88188 51.6534 6.90066L45.4165 18.8311C44.5411 20.4399 43.3888 23.311 42.3254 24.5048L32.6246 6.13572C31.8211 4.60925 30.1832 -0.148523 28.5658 1.65922C27.6016 2.73976 25.9021 26.7104 24.0078 30.9639L27.4682 31.012Z" stroke="#7C7C84" stroke-width="0.5" stroke-miterlimit="2.6131"/>
<path fill-rule="evenodd" clip-rule="evenodd" d="M124.154 1.42602C125.392 4.5407 125.272 27.6195 124.147 30.9983L130.384 31.0052C129.444 26.2611 129.701 22.2752 129.701 17.2224C131.821 17.6923 133.021 19.3834 134.494 21.2426C137.08 24.498 140.533 27.2902 142.978 29.8903C144.623 31.6398 146.91 31.0257 149.947 31.012C149.071 29.266 139.247 20.9854 136.355 17.3802L138.711 16.6975C146.267 14.9413 145.939 7.56962 143.272 4.55442C140.068 0.932067 130.193 0.791426 124.154 1.42602ZM129.817 3.0554C134.918 3.10342 139.856 4.07762 140.061 9.49743C140.287 15.5175 135.23 15.9909 129.704 15.7474L129.817 3.0554Z" fill="#7C7C84"/>
<path d="M124.154 1.42602C125.392 4.5407 125.272 27.6195 124.147 30.9983L130.384 31.0052C129.444 26.2611 129.701 22.2752 129.701 17.2224C131.821 17.6923 133.021 19.3834 134.494 21.2426C137.08 24.498 140.533 27.2902 142.978 29.8903C144.623 31.6398 146.91 31.0257 149.947 31.012C149.071 29.266 139.247 20.9854 136.355 17.3802L138.711 16.6975C146.267 14.9413 145.939 7.56962 143.272 4.55442C140.068 0.932067 130.193 0.791426 124.154 1.42602ZM129.817 3.0554C134.918 3.10342 139.856 4.07762 140.061 9.49743C140.287 15.5175 135.23 15.9909 129.704 15.7474L129.817 3.0554Z" stroke="#7C7C84" stroke-width="0.5" stroke-miterlimit="2.6131"/>
<path fill-rule="evenodd" clip-rule="evenodd" d="M95.9475 31.0155C97.1922 31.0155 100.947 21.596 101.398 20.1244L111.352 20.1519L116.252 30.9812H122.519C118.334 25.9353 114.272 14.9379 111.266 8.51645C107.683 0.863533 107.898 -1.24265 105.214 4.72944L96.6143 23.8703C95.397 26.7311 94.0976 28.7173 92.959 30.9984L95.9475 31.0155ZM106.493 9.44262L110.299 18.0526L102.482 18.0286L106.493 9.44262Z" fill="#7C7C84"/>
<path d="M95.9475 31.0155C97.1922 31.0155 100.947 21.596 101.398 20.1244L111.352 20.1519L116.252 30.9812H122.519C118.334 25.9353 114.272 14.9379 111.266 8.51645C107.683 0.863533 107.898 -1.24265 105.214 4.72944L96.6143 23.8703C95.397 26.7311 94.0976 28.7173 92.959 30.9984L95.9475 31.0155ZM106.493 9.44262L110.299 18.0526L102.482 18.0286L106.493 9.44262Z" stroke="#7C7C84" stroke-width="0.5" stroke-miterlimit="2.6131"/>
<path fill-rule="evenodd" clip-rule="evenodd" d="M21.3712 4.25956L21.2857 1.34727L0.813966 1.34384C1.67907 10.0704 2.05178 22.5909 0.810547 31.0225L21.8807 30.8715L22.3013 28.0896C21.2242 28.2165 20.1608 28.7791 18.9195 28.8991L6.30205 28.9574L6.28838 17.2946L18.9366 17.2911L19.5795 14.9963L6.27812 14.9791L6.38754 3.39857C11.2225 3.39857 17.0867 2.80856 21.3712 4.25956Z" fill="#7C7C84"/>
<path d="M21.3712 4.25956L21.2857 1.34727L0.813966 1.34384C1.67907 10.0704 2.05178 22.5909 0.810547 31.0225L21.8807 30.8715L22.3013 28.0896C21.2242 28.2165 20.1608 28.7791 18.9195 28.8991L6.30205 28.9574L6.28838 17.2946L18.9366 17.2911L19.5795 14.9963L6.27812 14.9791L6.38754 3.39857C11.2225 3.39857 17.0867 2.80856 21.3712 4.25956Z" stroke="#7C7C84" stroke-width="0.5" stroke-miterlimit="2.6131"/>
<path fill-rule="evenodd" clip-rule="evenodd" d="M70.5073 20.1174L80.5295 20.1518C81.9041 23.7295 83.8258 27.6057 85.3474 31.012H91.5809C87.6179 25.7705 86.722 22.2682 83.8258 16.1658C82.6119 13.6068 81.463 11.0753 80.2902 8.39968C76.6622 0.13275 76.8742 -0.765978 74.2516 4.86994C70.904 12.0701 67.3889 20.7898 64.0824 27.6229C63.3575 29.1253 62.6873 29.7325 62.1025 31.0188L65.7476 30.9777L70.5073 20.1174ZM75.3834 9.4905C76.628 10.8523 78.6557 15.9908 79.4387 18.0456L71.5503 18.0387L75.3834 9.4905Z" fill="#7C7C84"/>
<path d="M70.5073 20.1174L80.5295 20.1518C81.9041 23.7295 83.8258 27.6057 85.3474 31.012H91.5809C87.6179 25.7705 86.722 22.2682 83.8258 16.1658C82.6119 13.6068 81.463 11.0753 80.2902 8.39968C76.6622 0.13275 76.8742 -0.765978 74.2516 4.86994C70.904 12.0701 67.3889 20.7898 64.0824 27.6229C63.3575 29.1253 62.6873 29.7325 62.1025 31.0188L65.7476 30.9777L70.5073 20.1174ZM75.3834 9.4905C76.628 10.8523 78.6557 15.9908 79.4387 18.0456L71.5503 18.0387L75.3834 9.4905Z" stroke="#7C7C84" stroke-width="0.5" stroke-miterlimit="2.6131"/>
</svg>
