<svg width="249" height="64" viewBox="0 0 249 64" fill="none" xmlns="http://www.w3.org/2000/svg">
<g clip-path="url(#clip0_12_102)">
<path fill-rule="evenodd" clip-rule="evenodd" d="M75.4736 46.3906L80.7396 46.4238L80.8422 28.0577L88.1113 46.3391L92.6339 46.4532C95.3585 41.789 97.1675 32.6961 99.8554 27.5202L100.031 46.409L105.308 46.4311L105.418 17.8641L98.4272 17.7978L90.5868 39.0427C89.4772 37.4193 85.7163 26.3974 84.5005 23.0916C82.0982 16.5499 83.9219 17.7942 75.481 17.8236L75.4736 46.3906Z" fill="#7C7C84"/>
<path d="M75.4736 46.3906L80.7396 46.4238L80.8422 28.0577L88.1113 46.3391L92.6339 46.4532C95.3585 41.789 97.1675 32.6961 99.8554 27.5202L100.031 46.409L105.308 46.4311L105.418 17.8641L98.4272 17.7978L90.5868 39.0427C89.4772 37.4193 85.7163 26.3974 84.5005 23.0916C82.0982 16.5499 83.9219 17.7942 75.481 17.8236L75.4736 46.3906Z" stroke="#7C7C84" stroke-width="0.5" stroke-miterlimit="2.6131"/>
<path fill-rule="evenodd" clip-rule="evenodd" d="M137.2 46.4422H143.045L143.059 35.8105L149.043 35.6706L154.518 46.4569L160.897 46.409L155.027 34.4632C157.319 32.6483 159.055 31.8936 159.432 27.8037C160.568 15.567 146.026 17.7979 137.219 17.7979L137.2 46.4422ZM143.048 22.8008C147.523 22.8008 153.734 21.7074 153.46 27.038C153.214 31.8053 147.187 30.734 143.063 30.734L143.048 22.8008Z" fill="#7C7C84"/>
<path d="M137.2 46.4422H143.045L143.059 35.8105L149.043 35.6706L154.518 46.4569L160.897 46.409L155.027 34.4632C157.319 32.6483 159.055 31.8936 159.432 27.8037C160.568 15.567 146.026 17.7979 137.219 17.7979L137.2 46.4422ZM143.048 22.8008C147.523 22.8008 153.734 21.7074 153.46 27.038C153.214 31.8053 147.187 30.734 143.063 30.734L143.048 22.8008Z" stroke="#7C7C84" stroke-width="0.5" stroke-miterlimit="2.6131"/>
<path fill-rule="evenodd" clip-rule="evenodd" d="M228.191 37.7653C227.136 38.2328 224.686 40.6073 224.107 41.7743C228.879 48.7062 243.26 49.251 247.299 42.2602C248.819 39.6281 248.724 35.7406 247.061 33.4287C243.381 28.3117 233.493 29.8542 231.248 27.2368C226.935 22.2081 240.305 18.9023 242.692 26.0514C244.256 25.6648 246.893 24.6304 247.845 23.7321C245.065 14.9706 229.154 15.0663 225.418 22.116C223.965 24.8549 224.466 28.7866 226.279 30.7598C230.915 35.8032 241.356 33.149 242.158 37.7543C243.256 44.0677 231.527 43.118 228.191 37.7653Z" fill="#7C7C84"/>
<path d="M228.191 37.7653C227.136 38.2328 224.686 40.6073 224.107 41.7743C228.879 48.7062 243.26 49.251 247.299 42.2602C248.819 39.6281 248.724 35.7406 247.061 33.4287C243.381 28.3117 233.493 29.8542 231.248 27.2368C226.935 22.2081 240.305 18.9023 242.692 26.0514C244.256 25.6648 246.893 24.6304 247.845 23.7321C245.065 14.9706 229.154 15.0663 225.418 22.116C223.965 24.8549 224.466 28.7866 226.279 30.7598C230.915 35.8032 241.356 33.149 242.158 37.7543C243.256 44.0677 231.527 43.118 228.191 37.7653Z" stroke="#7C7C84" stroke-width="0.5" stroke-miterlimit="2.6131"/>
<path fill-rule="evenodd" clip-rule="evenodd" d="M110.973 46.4017L131.751 46.4385L131.898 41.3767L116.997 41.3104L116.89 34.4153L130.539 34.2865L130.561 29.1805L116.901 29.1069L116.909 23.0327L131.451 22.9296L131.601 17.8089L110.976 17.8052L110.973 46.4017Z" fill="#7C7C84"/>
<path d="M110.973 46.4017L131.751 46.4385L131.898 41.3767L116.997 41.3104L116.89 34.4153L130.539 34.2865L130.561 29.1805L116.901 29.1069L116.909 23.0327L131.451 22.9296L131.601 17.8089L110.976 17.8052L110.973 46.4017Z" stroke="#7C7C84" stroke-width="0.5" stroke-miterlimit="2.6131"/>
<path fill-rule="evenodd" clip-rule="evenodd" d="M193.765 46.3649L199.785 46.4311C200.331 45.2126 200.693 44.2187 201.118 42.956C201.297 42.4295 201.466 41.7779 201.66 41.2994C202.231 39.9115 201.858 40.3091 202.872 39.8379L213.536 39.8416L215.924 46.4274L222.105 46.4238L211.016 17.9009L205.069 17.8052L193.765 46.3649ZM207.933 24.5641L211.599 34.9197L204.026 34.8792L207.933 24.5641Z" fill="#7C7C84"/>
<path d="M193.765 46.3649L199.785 46.4311C200.331 45.2126 200.693 44.2187 201.118 42.956C201.297 42.4295 201.466 41.7779 201.66 41.2994C202.231 39.9115 201.858 40.3091 202.872 39.8379L213.536 39.8416L215.924 46.4274L222.105 46.4238L211.016 17.9009L205.069 17.8052L193.765 46.3649ZM207.933 24.5641L211.599 34.9197L204.026 34.8792L207.933 24.5641Z" stroke="#7C7C84" stroke-width="0.5" stroke-miterlimit="2.6131"/>
<path fill-rule="evenodd" clip-rule="evenodd" d="M163.377 46.4385L169.163 46.4348L171.679 39.9483C186.916 39.7827 181.339 38.369 185.408 46.3943L191.446 46.4422L180.438 17.8752L174.304 17.7979C173.008 22.2044 170.544 27.7963 168.778 32.1623C167.669 34.9086 163.666 44.1082 163.377 46.4385ZM177.241 24.8844C178.362 26.2538 180.596 32.7035 181.043 34.9381L173.462 34.8276L177.241 24.8844Z" fill="#7C7C84"/>
<path d="M163.377 46.4385L169.163 46.4348L171.679 39.9483C186.916 39.7827 181.339 38.369 185.408 46.3943L191.446 46.4422L180.438 17.8752L174.304 17.7979C173.008 22.2044 170.544 27.7963 168.778 32.1623C167.669 34.9086 163.666 44.1082 163.377 46.4385ZM177.241 24.8844C178.362 26.2538 180.596 32.7035 181.043 34.9381L173.462 34.8276L177.241 24.8844Z" stroke="#7C7C84" stroke-width="0.5" stroke-miterlimit="2.6131"/>
<path fill-rule="evenodd" clip-rule="evenodd" d="M0.0830078 53.2894L5.64563 53.3336C6.13634 51.7249 6.20592 13.811 5.74817 10.9837L0.178221 10.9727L0.0830078 53.2894Z" fill="#7C7C84"/>
<path d="M0.0830078 53.2894L5.64563 53.3336C6.13634 51.7249 6.20592 13.811 5.74817 10.9837L0.178221 10.9727L0.0830078 53.2894Z" stroke="#7C7C84" stroke-width="0.5" stroke-miterlimit="2.6131"/>
<path fill-rule="evenodd" clip-rule="evenodd" d="M10.3555 63.6376L52.304 63.6339L52.3004 57.8727L10.3701 57.7696L10.3555 63.6376Z" fill="#7C7C84"/>
<path d="M10.3555 63.6376L52.304 63.6339L52.3004 57.8727L10.3701 57.7696L10.3555 63.6376Z" stroke="#7C7C84" stroke-width="0.5" stroke-miterlimit="2.6131"/>
<path fill-rule="evenodd" clip-rule="evenodd" d="M56.793 53.2379L62.5936 53.3115L62.6119 10.958L56.9138 10.9617L56.793 53.2379Z" fill="#7C7C84"/>
<path d="M56.793 53.2379L62.5936 53.3115L62.6119 10.958L56.9138 10.9617L56.793 53.2379Z" stroke="#7C7C84" stroke-width="0.5" stroke-miterlimit="2.6131"/>
<path fill-rule="evenodd" clip-rule="evenodd" d="M10.3115 6.36368L52.2784 6.48885V0.672369L10.4104 0.624512L10.3115 6.36368Z" fill="#7C7C84"/>
<path d="M10.3115 6.36368L52.2784 6.48885V0.672369L10.4104 0.624512L10.3115 6.36368Z" stroke="#7C7C84" stroke-width="0.5" stroke-miterlimit="2.6131"/>
<path fill-rule="evenodd" clip-rule="evenodd" d="M28.4014 46.4201L34.2203 46.4459L34.2167 17.7979L28.416 17.8052L28.4014 46.4201Z" fill="#7C7C84"/>
<path d="M28.4014 46.4201L34.2203 46.4459L34.2167 17.7979L28.416 17.8052L28.4014 46.4201Z" stroke="#7C7C84" stroke-width="0.5" stroke-miterlimit="2.6131"/>
<path fill-rule="evenodd" clip-rule="evenodd" d="M42.5918 46.3686L48.2496 46.4495L48.4181 45.0911L48.3888 19.3182L48.3815 17.7979L42.5918 17.8383V46.3686Z" fill="#7C7C84"/>
<path d="M42.5918 46.3686L48.2496 46.4495L48.4181 45.0911L48.3888 19.3182L48.3815 17.7979L42.5918 17.8383V46.3686Z" stroke="#7C7C84" stroke-width="0.5" stroke-miterlimit="2.6131"/>
<path fill-rule="evenodd" clip-rule="evenodd" d="M14.2441 46.4054L19.9642 46.4201L20.0631 17.9341L14.2478 17.8015L14.2441 46.4054Z" fill="#7C7C84"/>
<path d="M14.2441 46.4054L19.9642 46.4201L20.0631 17.9341L14.2478 17.8015L14.2441 46.4054Z" stroke="#7C7C84" stroke-width="0.5" stroke-miterlimit="2.6131"/>
</g>
<defs>
<clipPath id="clip0_12_102">
<rect width="248.48" height="63.1972" fill="white" transform="translate(-0.00878906 0.532471)"/>
</clipPath>
</defs>
</svg>
