<svg width="199" height="72" viewBox="0 0 199 72" fill="none" xmlns="http://www.w3.org/2000/svg">
<path fill-rule="evenodd" clip-rule="evenodd" d="M8.78145 25.2329C8.88686 25.3684 9.05287 25.3982 9.10294 25.6367L12.6525 30.5803C16.3523 35.711 20.7925 43.4733 20.2365 50.325L13.6512 38.6598C11.1847 34.1498 9.25578 31.1875 8.78145 25.2329ZM6.82617 71.2621C13.5063 67.942 27.4225 51.8373 26.9271 39.5162C26.4001 26.3685 16.318 21.5225 15.4879 11.2911C15.177 7.44512 15.8832 3.339 17.6171 1C8.35456 8.10373 -2.47857 22.8099 1.21065 35.4182C3.45317 43.0803 7.24516 46.788 10.1017 52.7534C12.1202 56.9625 12.974 63.3643 9.41389 67.8634C8.38618 69.1643 7.71158 69.9693 6.82617 71.2621Z" fill="#7C7C84"/>
<path d="M8.78145 25.2329C8.88686 25.3684 9.05287 25.3982 9.10294 25.6367L12.6525 30.5803C16.3523 35.711 20.7925 43.4733 20.2365 50.325L13.6512 38.6598C11.1847 34.1498 9.25578 31.1875 8.78145 25.2329ZM6.82617 71.2621C13.5063 67.942 27.4225 51.8373 26.9271 39.5162C26.4001 26.3685 16.318 21.5225 15.4879 11.2911C15.177 7.44512 15.8832 3.339 17.6171 1C8.35456 8.10373 -2.47857 22.8099 1.21065 35.4182C3.45317 43.0803 7.24516 46.788 10.1017 52.7534C12.1202 56.9625 12.974 63.3643 9.41389 67.8634C8.38618 69.1643 7.71158 69.9693 6.82617 71.2621Z" stroke="#7C7C84" stroke-width="0.5" stroke-miterlimit="2.6131"/>
<path fill-rule="evenodd" clip-rule="evenodd" d="M68.1729 63.9497L72.1414 63.9281V54.3281C91.9762 54.3281 90.851 52.935 90.851 63.9497L94.7879 63.9226C94.7985 57.4775 96.0212 54.2631 89.7047 53.2169C93.2016 53.0082 95.1094 51.2926 95.2781 47.631C95.4652 43.5492 93.8314 41.6222 90.5532 40.7413C86.0445 39.5325 73.6408 40.164 68.2598 40.1586L68.1729 63.9497ZM72.1098 42.4705H84.3237C87.1012 42.4705 90.3951 42.3892 91.0697 44.8095C91.8787 47.7177 91.3148 50.512 89.0301 51.4362C86.5952 52.4228 75.5091 52.0217 72.1071 52.0217L72.1098 50.9375V42.4705Z" fill="#7C7C84"/>
<path d="M68.1729 63.9497L72.1414 63.9281V54.3281C91.9762 54.3281 90.851 52.935 90.851 63.9497L94.7879 63.9226C94.7985 57.4775 96.0212 54.2631 89.7047 53.2169C93.2016 53.0082 95.1094 51.2926 95.2781 47.631C95.4652 43.5492 93.8314 41.6222 90.5532 40.7413C86.0445 39.5325 73.6408 40.164 68.2598 40.1586L68.1729 63.9497ZM72.1098 42.4705H84.3237C87.1012 42.4705 90.3951 42.3892 91.0697 44.8095C91.8787 47.7177 91.3148 50.512 89.0301 51.4362C86.5952 52.4228 75.5091 52.0217 72.1071 52.0217L72.1098 50.9375V42.4705Z" stroke="#7C7C84" stroke-width="0.5" stroke-miterlimit="2.6131"/>
<path fill-rule="evenodd" clip-rule="evenodd" d="M63.403 52.1571H48.625L48.4801 54.4474L59.7111 54.4799C60.0089 62.1446 58.4172 61.982 48.7489 61.9143C40.1161 61.8546 38.5666 62.2585 38.4849 53.3768C38.4665 51.3007 38.3584 46.4492 39.0805 44.7824C40.124 42.3702 42.854 42.4271 45.8449 42.2726C48.82 42.1182 52.106 42.129 55.0732 42.3404C58.9416 42.6141 59.3843 43.1887 59.7058 46.9886L63.4952 47.0943C64.009 42.6548 61.6111 40.8904 57.8033 40.2697C54.5304 39.7331 49.0414 39.7819 45.5761 39.9147C34.801 40.3321 34.3794 43.8582 34.4742 54.4663C34.519 59.2988 34.9881 61.3668 38.6193 62.993C41.3309 64.2099 46.8568 64.2912 50.0664 64.1936C55.4501 64.0337 62.7389 64.9634 63.5189 58.5291C63.7297 56.7945 63.9194 53.7671 63.403 52.1571Z" fill="#7C7C84"/>
<path d="M63.403 52.1571H48.625L48.4801 54.4474L59.7111 54.4799C60.0089 62.1446 58.4172 61.982 48.7489 61.9143C40.1161 61.8546 38.5666 62.2585 38.4849 53.3768C38.4665 51.3007 38.3584 46.4492 39.0805 44.7824C40.124 42.3702 42.854 42.4271 45.8449 42.2726C48.82 42.1182 52.106 42.129 55.0732 42.3404C58.9416 42.6141 59.3843 43.1887 59.7058 46.9886L63.4952 47.0943C64.009 42.6548 61.6111 40.8904 57.8033 40.2697C54.5304 39.7331 49.0414 39.7819 45.5761 39.9147C34.801 40.3321 34.3794 43.8582 34.4742 54.4663C34.519 59.2988 34.9881 61.3668 38.6193 62.993C41.3309 64.2099 46.8568 64.2912 50.0664 64.1936C55.4501 64.0337 62.7389 64.9634 63.5189 58.5291C63.7297 56.7945 63.9194 53.7671 63.403 52.1571Z" stroke="#7C7C84" stroke-width="0.5" stroke-miterlimit="2.6131"/>
<path fill-rule="evenodd" clip-rule="evenodd" d="M110.069 40.0663C105.65 40.4105 102.122 40.9417 100.591 44.3622C99.405 47.0101 99.5262 54.2006 99.9742 57.3283C100.57 61.4805 102.944 63.3018 107.044 63.8683C110.657 64.367 116.323 64.3561 120.02 64.0905C124.399 63.7761 127.667 63.0362 129.082 59.5616C130.062 57.1575 129.997 49.7069 129.643 46.8882C129.135 42.8335 126.534 40.958 122.615 40.3102C118.918 39.7031 113.825 39.7736 110.069 40.0663ZM109.266 42.3674C112.146 42.1289 116.431 42.1505 119.382 42.2969C123.111 42.4812 124.971 42.8905 125.635 46.3895C125.988 48.246 125.97 54.5475 125.828 56.6046C125.593 60.0169 123.986 61.4588 120.652 61.7353C117.501 61.9982 113.577 61.971 110.404 61.8301C106.87 61.6729 104.609 61.1715 103.964 57.8595C103.582 55.9054 103.603 49.5063 103.8 47.4058C104.156 43.6548 105.59 42.6736 109.266 42.3674Z" fill="#7C7C84"/>
<path d="M110.069 40.0663C105.65 40.4105 102.122 40.9417 100.591 44.3622C99.405 47.0101 99.5262 54.2006 99.9742 57.3283C100.57 61.4805 102.944 63.3018 107.044 63.8683C110.657 64.367 116.323 64.3561 120.02 64.0905C124.399 63.7761 127.667 63.0362 129.082 59.5616C130.062 57.1575 129.997 49.7069 129.643 46.8882C129.135 42.8335 126.534 40.958 122.615 40.3102C118.918 39.7031 113.825 39.7736 110.069 40.0663ZM109.266 42.3674C112.146 42.1289 116.431 42.1505 119.382 42.2969C123.111 42.4812 124.971 42.8905 125.635 46.3895C125.988 48.246 125.97 54.5475 125.828 56.6046C125.593 60.0169 123.986 61.4588 120.652 61.7353C117.501 61.9982 113.577 61.971 110.404 61.8301C106.87 61.6729 104.609 61.1715 103.964 57.8595C103.582 55.9054 103.603 49.5063 103.8 47.4058C104.156 43.6548 105.59 42.6736 109.266 42.3674Z" stroke="#7C7C84" stroke-width="0.5" stroke-miterlimit="2.6131"/>
<path fill-rule="evenodd" clip-rule="evenodd" d="M38.39 25.2328L34.4268 25.1054C34.5348 29.5151 35.9156 31.7457 39.8684 32.3989C43.605 33.0168 48.0031 32.7675 51.8135 32.6048C55.7847 32.4368 59.4186 32.1712 60.5728 28.9324C61.9879 24.9618 60.8389 21.2215 57.6873 20.0642C49.7739 17.1615 37.7497 22.368 38.7194 14.088C39.1727 10.2231 44.5194 10.7245 47.9662 10.6947C55.3262 10.6323 55.9665 11.0877 56.4883 15.0664L60.3251 15.1016C60.6887 10.5836 58.1432 9.17961 54.2431 8.7297C50.5539 8.30418 46.1269 8.334 42.4245 8.61045C38.5982 8.89774 35.4255 9.84635 34.8721 13.5893C34.1659 18.3459 36.1422 20.3217 40.0844 21.1131C43.1939 21.7365 48.5064 21.5495 51.9163 21.7365C53.5264 21.8259 55.6608 21.9994 56.5067 23.1892C57.3552 24.3845 57.2657 27.0731 56.6622 28.431C55.2682 31.5587 41.8236 30.377 40.369 29.7617C38.4981 28.973 38.4506 27.5393 38.39 25.2328Z" fill="#7C7C84"/>
<path d="M38.39 25.2328L34.4268 25.1054C34.5348 29.5151 35.9156 31.7457 39.8684 32.3989C43.605 33.0168 48.0031 32.7675 51.8135 32.6048C55.7847 32.4368 59.4186 32.1712 60.5728 28.9324C61.9879 24.9618 60.8389 21.2215 57.6873 20.0642C49.7739 17.1615 37.7497 22.368 38.7194 14.088C39.1727 10.2231 44.5194 10.7245 47.9662 10.6947C55.3262 10.6323 55.9665 11.0877 56.4883 15.0664L60.3251 15.1016C60.6887 10.5836 58.1432 9.17961 54.2431 8.7297C50.5539 8.30418 46.1269 8.334 42.4245 8.61045C38.5982 8.89774 35.4255 9.84635 34.8721 13.5893C34.1659 18.3459 36.1422 20.3217 40.0844 21.1131C43.1939 21.7365 48.5064 21.5495 51.9163 21.7365C53.5264 21.8259 55.6608 21.9994 56.5067 23.1892C57.3552 24.3845 57.2657 27.0731 56.6622 28.431C55.2682 31.5587 41.8236 30.377 40.369 29.7617C38.4981 28.973 38.4506 27.5393 38.39 25.2328Z" stroke="#7C7C84" stroke-width="0.5" stroke-miterlimit="2.6131"/>
<path fill-rule="evenodd" clip-rule="evenodd" d="M163.36 40.1667L159.51 40.1722C159.083 44.796 159.463 51.2682 159.452 56.0925C159.444 58.8679 159.355 60.6974 156.93 61.3858C155.107 61.9034 151.42 61.9116 149.415 61.9224C147.012 61.936 144.463 61.9929 142.189 61.3478C139.504 60.5862 139.457 59.1525 139.446 56.098C139.428 51.4471 139.857 44.5303 139.372 40.1667L135.564 40.183C135.312 43.3649 135.206 56.3663 135.704 59.0685C136.727 64.6381 144.123 64.153 149.417 64.153C154.914 64.153 162.087 64.6002 163.22 59.2067C163.653 57.1252 163.65 42.5654 163.36 40.1667Z" fill="#7C7C84"/>
<path d="M163.36 40.1667L159.51 40.1722C159.083 44.796 159.463 51.2682 159.452 56.0925C159.444 58.8679 159.355 60.6974 156.93 61.3858C155.107 61.9034 151.42 61.9116 149.415 61.9224C147.012 61.936 144.463 61.9929 142.189 61.3478C139.504 60.5862 139.457 59.1525 139.446 56.098C139.428 51.4471 139.857 44.5303 139.372 40.1667L135.564 40.183C135.312 43.3649 135.206 56.3663 135.704 59.0685C136.727 64.6381 144.123 64.153 149.417 64.153C154.914 64.153 162.087 64.6002 163.22 59.2067C163.653 57.1252 163.65 42.5654 163.36 40.1667Z" stroke="#7C7C84" stroke-width="0.5" stroke-miterlimit="2.6131"/>
<path fill-rule="evenodd" clip-rule="evenodd" d="M169.387 24.5933L165.429 24.5011C165.529 30.4692 164.293 30.5045 153.629 30.3391C145.692 30.2145 145.346 29.2089 145.17 21.1268C144.996 13.2289 144.353 10.9875 152.575 10.768C155.339 10.6948 158.535 10.562 161.271 10.8601C164.71 11.2342 164.636 12.5947 165.055 15.8796L168.881 15.9149C169.448 7.18766 160.198 8.09291 152.572 8.4588C141.186 9.00357 140.851 11.5675 140.946 20.8585C141.038 29.9245 142.353 32.6998 153.365 32.7134C156.443 32.7161 162.064 32.811 164.844 32.1334C168.847 31.155 169.384 29.0355 169.387 24.5933Z" fill="#7C7C84"/>
<path d="M169.387 24.5933L165.429 24.5011C165.529 30.4692 164.293 30.5045 153.629 30.3391C145.692 30.2145 145.346 29.2089 145.17 21.1268C144.996 13.2289 144.353 10.9875 152.575 10.768C155.339 10.6948 158.535 10.562 161.271 10.8601C164.71 11.2342 164.636 12.5947 165.055 15.8796L168.881 15.9149C169.448 7.18766 160.198 8.09291 152.572 8.4588C141.186 9.00357 140.851 11.5675 140.946 20.8585C141.038 29.9245 142.353 32.6998 153.365 32.7134C156.443 32.7161 162.064 32.811 164.844 32.1334C168.847 31.155 169.384 29.0355 169.387 24.5933Z" stroke="#7C7C84" stroke-width="0.5" stroke-miterlimit="2.6131"/>
<path fill-rule="evenodd" clip-rule="evenodd" d="M169.152 63.8792L173.052 63.8765L173.145 54.5991C178.354 54.5937 183.617 54.7157 188.684 54.4284C193.915 54.1302 196.405 51.1516 195.385 45.3705C194.521 40.4703 190.102 40.1613 184.992 40.1667C179.738 40.1748 174.481 40.164 169.226 40.1667L169.152 63.8792ZM173.145 52.2791V42.4894C176.963 42.3756 180.892 42.4732 184.723 42.4678C189.382 42.4623 191.585 42.2889 191.641 47.4195C191.691 51.9945 188.89 52.2628 184.729 52.2981C180.913 52.3306 176.958 52.3658 173.145 52.2791Z" fill="#7C7C84"/>
<path d="M169.152 63.8792L173.052 63.8765L173.145 54.5991C178.354 54.5937 183.617 54.7157 188.684 54.4284C193.915 54.1302 196.405 51.1516 195.385 45.3705C194.521 40.4703 190.102 40.1613 184.992 40.1667C179.738 40.1748 174.481 40.164 169.226 40.1667L169.152 63.8792ZM173.145 52.2791V42.4894C176.963 42.3756 180.892 42.4732 184.723 42.4678C189.382 42.4623 191.585 42.2889 191.641 47.4195C191.691 51.9945 188.89 52.2628 184.729 52.2981C180.913 52.3306 176.958 52.3658 173.145 52.2791Z" stroke="#7C7C84" stroke-width="0.5" stroke-miterlimit="2.6131"/>
<path fill-rule="evenodd" clip-rule="evenodd" d="M115.146 31.4261L115.204 32.4451L137.732 32.4397L137.748 30.1576L119.112 30.1305V21.2678L136.889 21.2597L137.005 19.0372L119.112 19.021V10.9686L137.674 10.9578L137.817 8.68384L115.146 8.65674V31.4261Z" fill="#7C7C84"/>
<path d="M115.146 31.4261L115.204 32.4451L137.732 32.4397L137.748 30.1576L119.112 30.1305V21.2678L136.889 21.2597L137.005 19.0372L119.112 19.021V10.9686L137.674 10.9578L137.817 8.68384L115.146 8.65674V31.4261Z" stroke="#7C7C84" stroke-width="0.5" stroke-miterlimit="2.6131"/>
<path fill-rule="evenodd" clip-rule="evenodd" d="M64.1491 32.3528L86.706 32.4476L86.7271 30.133C83.4358 30.1357 70.2653 30.5613 68.115 29.9704L68.1282 21.3299L86.0183 21.2595L85.9708 19.0207C82.7718 19.0235 70.2021 19.43 68.1177 18.8581L68.1282 11.0308L86.7983 10.9603V8.65381L64.1465 8.66194L64.1491 32.3528Z" fill="#7C7C84"/>
<path d="M64.1491 32.3528L86.706 32.4476L86.7271 30.133C83.4358 30.1357 70.2653 30.5613 68.115 29.9704L68.1282 21.3299L86.0183 21.2595L85.9708 19.0207C82.7718 19.0235 70.2021 19.43 68.1177 18.8581L68.1282 11.0308L86.7983 10.9603V8.65381L64.1465 8.66194L64.1491 32.3528Z" stroke="#7C7C84" stroke-width="0.5" stroke-miterlimit="2.6131"/>
<path fill-rule="evenodd" clip-rule="evenodd" d="M171.311 11.1339L182.742 11.1746L182.792 32.4397L186.7 32.418L186.755 11.1638L198.16 11.161V8.66213L171.311 8.65942V11.1339Z" fill="#7C7C84"/>
<path d="M171.311 11.1339L182.742 11.1746L182.792 32.4397L186.7 32.418L186.755 11.1638L198.16 11.161V8.66213L171.311 8.65942V11.1339Z" stroke="#7C7C84" stroke-width="0.5" stroke-miterlimit="2.6131"/>
<path fill-rule="evenodd" clip-rule="evenodd" d="M89.9203 32.3964L111.953 32.4451L112.04 31.4261L112.027 29.9327L93.9811 29.93L93.8836 8.65674L89.915 8.67571L89.9203 32.3964Z" fill="#7C7C84"/>
<path d="M89.9203 32.3964L111.953 32.4451L112.04 31.4261L112.027 29.9327L93.9811 29.93L93.8836 8.65674L89.915 8.67571L89.9203 32.3964Z" stroke="#7C7C84" stroke-width="0.5" stroke-miterlimit="2.6131"/>
<path fill-rule="evenodd" clip-rule="evenodd" d="M109.907 40.0108C105.374 40.349 101.755 40.871 100.185 44.232C98.9689 46.8341 99.0932 53.8997 99.5527 56.9731C100.163 61.0533 102.599 62.843 106.804 63.3996C110.509 63.8896 116.32 63.879 120.112 63.618C124.604 63.309 127.955 62.582 129.407 59.1677C130.412 56.8053 130.344 49.484 129.982 46.7142C129.461 42.73 126.793 40.887 122.774 40.2505C118.982 39.6539 113.758 39.7231 109.907 40.0108ZM109.082 42.2719C112.036 42.0375 116.431 42.0588 119.458 42.2026C123.282 42.3837 125.19 42.7859 125.871 46.2242C126.234 48.0485 126.215 54.2406 126.069 56.262C125.828 59.6151 124.18 61.0319 120.761 61.3036C117.528 61.5619 113.504 61.5353 110.25 61.3968C106.626 61.2423 104.307 60.7496 103.645 57.4951C103.253 55.5749 103.274 49.2869 103.477 47.2229C103.842 43.5369 105.312 42.5728 109.082 42.2719Z" fill="#7C7C84"/>
<path d="M109.907 40.0108C105.374 40.349 101.755 40.871 100.185 44.232C98.9689 46.8341 99.0932 53.8997 99.5527 56.9731C100.163 61.0533 102.599 62.843 106.804 63.3996C110.509 63.8896 116.32 63.879 120.112 63.618C124.604 63.309 127.955 62.582 129.407 59.1677C130.412 56.8053 130.344 49.484 129.982 46.7142C129.461 42.73 126.793 40.887 122.774 40.2505C118.982 39.6539 113.758 39.7231 109.907 40.0108ZM109.082 42.2719C112.036 42.0375 116.431 42.0588 119.458 42.2026C123.282 42.3837 125.19 42.7859 125.871 46.2242C126.234 48.0485 126.215 54.2406 126.069 56.262C125.828 59.6151 124.18 61.0319 120.761 61.3036C117.528 61.5619 113.504 61.5353 110.25 61.3968C106.626 61.2423 104.307 60.7496 103.645 57.4951C103.253 55.5749 103.274 49.2869 103.477 47.2229C103.842 43.5369 105.312 42.5728 109.082 42.2719Z" stroke="#7C7C84" stroke-width="0.5" stroke-miterlimit="2.6131"/>
<path fill-rule="evenodd" clip-rule="evenodd" d="M163.024 39.7959L159.203 39.8013C158.779 44.4257 159.155 50.8988 159.145 55.7237C159.137 58.4994 159.048 60.3291 156.642 61.0176C154.832 61.5354 151.173 61.5435 149.183 61.5543C146.797 61.5679 144.268 61.6248 142.011 60.9797C139.346 60.218 139.299 58.7841 139.289 55.7291C139.27 51.0777 139.697 44.1601 139.215 39.7959L135.436 39.8122C135.185 42.9945 135.08 55.9975 135.575 58.7C136.589 64.2704 143.931 63.7852 149.185 63.7852C154.641 63.7852 161.76 64.2325 162.885 58.8383C163.314 56.7565 163.311 42.1948 163.024 39.7959Z" fill="#7C7C84"/>
<path d="M163.024 39.7959L159.203 39.8013C158.779 44.4257 159.155 50.8988 159.145 55.7237C159.137 58.4994 159.048 60.3291 156.642 61.0176C154.832 61.5354 151.173 61.5435 149.183 61.5543C146.797 61.5679 144.268 61.6248 142.011 60.9797C139.346 60.218 139.299 58.7841 139.289 55.7291C139.27 51.0777 139.697 44.1601 139.215 39.7959L135.436 39.8122C135.185 42.9945 135.08 55.9975 135.575 58.7C136.589 64.2704 143.931 63.7852 149.185 63.7852C154.641 63.7852 161.76 64.2325 162.885 58.8383C163.314 56.7565 163.311 42.1948 163.024 39.7959Z" stroke="#7C7C84" stroke-width="0.5" stroke-miterlimit="2.6131"/>
<path fill-rule="evenodd" clip-rule="evenodd" d="M169.226 24.4963L165.33 24.4021C165.429 30.4977 164.213 30.5337 153.717 30.3648C145.906 30.2375 145.566 29.2105 145.393 20.9557C145.222 12.8892 144.589 10.5999 152.68 10.3756C155.4 10.3009 158.546 10.1653 161.238 10.4698C164.622 10.8518 164.55 12.2414 164.962 15.5965L168.728 15.6325C169.285 6.71885 160.183 7.64343 152.677 8.01714C141.472 8.57355 141.142 11.1923 141.236 20.6817C141.326 29.9413 142.62 32.776 153.458 32.7898C156.487 32.7926 162.019 32.8894 164.755 32.1974C168.694 31.1981 169.223 29.0333 169.226 24.4963Z" fill="#7C7C84"/>
<path d="M169.226 24.4963L165.33 24.4021C165.429 30.4977 164.213 30.5337 153.717 30.3648C145.906 30.2375 145.566 29.2105 145.393 20.9557C145.222 12.8892 144.589 10.5999 152.68 10.3756C155.4 10.3009 158.546 10.1653 161.238 10.4698C164.622 10.8518 164.55 12.2414 164.962 15.5965L168.728 15.6325C169.285 6.71885 160.183 7.64343 152.677 8.01714C141.472 8.57355 141.142 11.1923 141.236 20.6817C141.326 29.9413 142.62 32.776 153.458 32.7898C156.487 32.7926 162.019 32.8894 164.755 32.1974C168.694 31.1981 169.223 29.0333 169.226 24.4963Z" stroke="#7C7C84" stroke-width="0.5" stroke-miterlimit="2.6131"/>
<path fill-rule="evenodd" clip-rule="evenodd" d="M169.226 63.7959L173.058 63.7932L173.149 54.4035C178.268 54.398 183.44 54.5214 188.42 54.2306C193.56 53.9289 196.007 50.9142 195.005 45.0631C194.155 40.1036 189.813 39.7909 184.792 39.7964C179.628 39.8046 174.462 39.7936 169.298 39.7964L169.226 63.7959ZM173.149 52.0553V42.1472C176.901 42.032 180.762 42.1307 184.527 42.1253C189.106 42.1198 191.271 41.9442 191.325 47.1369C191.374 51.7673 188.622 52.0389 184.533 52.0746C180.783 52.1075 176.896 52.1431 173.149 52.0553Z" fill="#7C7C84"/>
<path d="M169.226 63.7959L173.058 63.7932L173.149 54.4035C178.268 54.398 183.44 54.5214 188.42 54.2306C193.56 53.9289 196.007 50.9142 195.005 45.0631C194.155 40.1036 189.813 39.7909 184.792 39.7964C179.628 39.8046 174.462 39.7936 169.298 39.7964L169.226 63.7959ZM173.149 52.0553V42.1472C176.901 42.032 180.762 42.1307 184.527 42.1253C189.106 42.1198 191.271 41.9442 191.325 47.1369C191.374 51.7673 188.622 52.0389 184.533 52.0746C180.783 52.1075 176.896 52.1431 173.149 52.0553Z" stroke="#7C7C84" stroke-width="0.5" stroke-miterlimit="2.6131"/>
<path fill-rule="evenodd" clip-rule="evenodd" d="M115.226 31.7678L115.284 32.7959L138.14 32.7904L138.156 30.488L119.249 30.4607V21.5192L137.285 21.5109L137.402 19.2687L119.249 19.2523V11.1284L138.081 11.1174L138.226 8.82324L115.226 8.7959V31.7678Z" fill="#7C7C84"/>
<path d="M115.226 31.7678L115.284 32.7959L138.14 32.7904L138.156 30.488L119.249 30.4607V21.5192L137.285 21.5109L137.402 19.2687L119.249 19.2523V11.1284L138.081 11.1174L138.226 8.82324L115.226 8.7959V31.7678Z" stroke="#7C7C84" stroke-width="0.5" stroke-miterlimit="2.6131"/>
<path fill-rule="evenodd" clip-rule="evenodd" d="M171.226 11.2933L182.721 11.3343L182.771 32.7959L186.701 32.774L186.757 11.3234L198.226 11.3206V8.79863L171.226 8.7959V11.2933Z" fill="#7C7C84"/>
<path d="M171.226 11.2933L182.721 11.3343L182.771 32.7959L186.701 32.774L186.757 11.3234L198.226 11.3206V8.79863L171.226 8.7959V11.2933Z" stroke="#7C7C84" stroke-width="0.5" stroke-miterlimit="2.6131"/>
</svg>
