<svg width="173" height="32" viewBox="0 0 173 32" fill="none" xmlns="http://www.w3.org/2000/svg">
<path fill-rule="evenodd" clip-rule="evenodd" d="M7.86954 2.7186C8.10287 3.06238 8.1504 3.10106 8.43125 3.78861L11.3694 17.3163C11.8879 19.7442 12.4021 22.0519 12.886 24.381C14.6446 32.7992 11.875 30.9256 27.4689 30.9342V1.26184L20.6981 1.38646L20.6938 29.4689C20.279 28.8243 20.737 29.8599 20.1667 28.3946C20.1105 28.2571 19.9722 27.8273 19.929 27.6812L14.4156 1.29622L1.10742 1.27473V30.9428L7.88682 30.8225L7.86954 2.7186Z" fill="#7C7C84"/>
<path d="M7.86954 2.7186C8.10287 3.06238 8.1504 3.10106 8.43125 3.78861L11.3694 17.3163C11.8879 19.7442 12.4021 22.0519 12.886 24.381C14.6446 32.7992 11.875 30.9256 27.4689 30.9342V1.26184L20.6981 1.38646L20.6938 29.4689C20.279 28.8243 20.737 29.8599 20.1667 28.3946C20.1105 28.2571 19.9722 27.8273 19.929 27.6812L14.4156 1.29622L1.10742 1.27473V30.9428L7.88682 30.8225L7.86954 2.7186Z" stroke="#7C7C84" stroke-width="0.5" stroke-miterlimit="2.6131"/>
<path fill-rule="evenodd" clip-rule="evenodd" d="M91.3094 18.6871H99.8387L99.8301 30.7752L107.409 30.9299L107.405 1.27043C104.678 1.25324 102.362 1.05557 99.8387 1.48529V12.873L94.537 12.9718L91.8279 17.2905C91.776 17.355 91.6162 17.63 91.5773 17.5526C91.5384 17.4753 91.4088 17.7331 91.3137 17.8148V1.35208L83.7436 1.38216L83.7393 30.8483L91.3137 30.8225L91.3094 18.6871Z" fill="#7C7C84"/>
<path d="M91.3094 18.6871H99.8387L99.8301 30.7752L107.409 30.9299L107.405 1.27043C104.678 1.25324 102.362 1.05557 99.8387 1.48529V12.873L94.537 12.9718L91.8279 17.2905C91.776 17.355 91.6162 17.63 91.5773 17.5526C91.5384 17.4753 91.4088 17.7331 91.3137 17.8148V1.35208L83.7436 1.38216L83.7393 30.8483L91.3137 30.8225L91.3094 18.6871Z" stroke="#7C7C84" stroke-width="0.5" stroke-miterlimit="2.6131"/>
<path fill-rule="evenodd" clip-rule="evenodd" d="M81.2466 1.27478L73.6765 1.27908C73.2271 2.53387 66.9273 14.2954 65.294 15.5502L65.2767 1.33924L57.7153 1.27908L57.7109 30.9601L65.2854 30.7194L65.2767 19.5423H69.3815C71.0235 20.8014 73.2271 28.631 73.6981 30.9429L81.4453 30.8226L77.4226 19.0224L71.2654 18.9192L81.2466 1.27478Z" fill="#7C7C84"/>
<path d="M81.2466 1.27478L73.6765 1.27908C73.2271 2.53387 66.9273 14.2954 65.294 15.5502L65.2767 1.33924L57.7153 1.27908L57.7109 30.9601L65.2854 30.7194L65.2767 19.5423H69.3815C71.0235 20.8014 73.2271 28.631 73.6981 30.9429L81.4453 30.8226L77.4226 19.0224L71.2654 18.9192L81.2466 1.27478Z" stroke="#7C7C84" stroke-width="0.5" stroke-miterlimit="2.6131"/>
<path fill-rule="evenodd" clip-rule="evenodd" d="M37.5147 25.0342L47.5693 25.1158L48.7273 30.9085L55.5629 30.9343C54.4999 25.8206 53.437 20.8014 52.3395 15.6232C51.8037 13.1007 49.989 1.63572 48.6452 1.27905H36.5468C34.9222 2.21155 34.771 6.62911 34.3778 8.54568L29.7588 30.9042L36.4518 30.844L37.5147 25.0342ZM38.8369 19.6196C39.8696 15.5545 40.9757 5.75247 42.5874 2.80887C43.9787 5.26259 45.8021 16.1432 46.4718 19.7743L38.8369 19.6196Z" fill="#7C7C84"/>
<path d="M37.5147 25.0342L47.5693 25.1158L48.7273 30.9085L55.5629 30.9343C54.4999 25.8206 53.437 20.8014 52.3395 15.6232C51.8037 13.1007 49.989 1.63572 48.6452 1.27905H36.5468C34.9222 2.21155 34.771 6.62911 34.3778 8.54568L29.7588 30.9042L36.4518 30.844L37.5147 25.0342ZM38.8369 19.6196C39.8696 15.5545 40.9757 5.75247 42.5874 2.80887C43.9787 5.26259 45.8021 16.1432 46.4718 19.7743L38.8369 19.6196Z" stroke="#7C7C84" stroke-width="0.5" stroke-miterlimit="2.6131"/>
<path fill-rule="evenodd" clip-rule="evenodd" d="M140.243 6.75799H151.399L151.481 1.27043C147.303 1.26183 136.078 0.909459 132.682 1.48529L132.673 30.7752L151.486 30.9299L151.373 25.4424H140.252L140.247 18.468L149.217 18.3605L149.213 12.9804C142.939 12.9804 143.665 12.4003 142.084 15.1333L140.252 17.7933L140.243 6.75799Z" fill="#7C7C84"/>
<path d="M140.243 6.75799H151.399L151.481 1.27043C147.303 1.26183 136.078 0.909459 132.682 1.48529L132.673 30.7752L151.486 30.9299L151.373 25.4424H140.252L140.247 18.468L149.217 18.3605L149.213 12.9804C142.939 12.9804 143.665 12.4003 142.084 15.1333L140.252 17.7933L140.243 6.75799Z" stroke="#7C7C84" stroke-width="0.5" stroke-miterlimit="2.6131"/>
<path fill-rule="evenodd" clip-rule="evenodd" d="M118.531 6.75797H129.769V1.35635C126.032 1.16727 114.115 0.973897 111.073 1.48956L111.064 30.7795L129.769 30.8268L129.765 25.4466H118.535L118.531 18.4722C121.512 18.4894 124.558 18.7559 127.501 18.2574V13.062C118.12 12.585 122.636 14.1664 118.609 17.6257L118.535 15.8896L118.531 6.75797Z" fill="#7C7C84"/>
<path d="M118.531 6.75797H129.769V1.35635C126.032 1.16727 114.115 0.973897 111.073 1.48956L111.064 30.7795L129.769 30.8268L129.765 25.4466H118.535L118.531 18.4722C121.512 18.4894 124.558 18.7559 127.501 18.2574V13.062C118.12 12.585 122.636 14.1664 118.609 17.6257L118.535 15.8896L118.531 6.75797Z" stroke="#7C7C84" stroke-width="0.5" stroke-miterlimit="2.6131"/>
<path fill-rule="evenodd" clip-rule="evenodd" d="M154.39 30.9343H171.79L171.811 27.0582L171.682 25.4553L161.96 25.3393L161.968 1.27478H154.39V30.9343Z" fill="#7C7C84"/>
<path d="M154.39 30.9343H171.79L171.811 27.0582L171.682 25.4553L161.96 25.3393L161.968 1.27478H154.39V30.9343Z" stroke="#7C7C84" stroke-width="0.5" stroke-miterlimit="2.6131"/>
</svg>
